<svg width="247" height="246" viewBox="0 0 247 246" fill="none" xmlns="http://www.w3.org/2000/svg">
<g clip-path="url(#clip0_2210_1950)">
<rect width="247" height="246" fill="black"/>
<path fill-rule="evenodd" clip-rule="evenodd" d="M0 0H247V246H0V0Z" fill="black"/>
<path fill-rule="evenodd" clip-rule="evenodd" d="M236.103 235.146H10.897V10.8525H236.103V235.146Z" fill="black"/>
<path fill-rule="evenodd" clip-rule="evenodd" d="M40.2253 93.6929V135.219H27.998V93.6929H40.2253ZM27.998 84.513V75.1481H40.2253V84.513H27.998ZM133.873 135.217H122.118V131.156H121.958C119.919 133.734 116.236 136.314 110.753 136.314C100.721 136.314 92.7248 129.833 92.4915 114.765C92.2558 98.2209 101.816 92.5953 110.206 92.5953C113.575 92.5953 118.042 93.222 121.646 96.969V74.6963H133.873V135.217ZM113.102 101.501C107.305 101.501 104.716 106.496 104.716 114.46C104.716 121.247 106.364 127.411 113.102 127.411C119.451 127.411 121.646 121.561 121.646 113.599C121.646 106.183 119.451 101.501 113.102 101.501ZM175.509 133.454C171.439 135.69 167.673 136.404 161.694 136.404C147.572 136.404 139.348 128.295 139.348 114.314C139.348 101.987 145.912 91.813 159.199 91.813C175.07 91.813 179.56 103.536 179.334 118.43H150.203C150.923 125.295 155.299 127.633 162.195 127.633C167.591 127.633 171.357 126.754 175.51 124.442V133.454H175.509ZM168.924 109.989C168.586 105.433 166.098 100.361 159.864 100.361C153.635 100.361 150.921 105.102 150.427 109.989H168.924ZM194.056 113.139L180.199 93.2539H193.404L200.82 104.212L208.157 93.2539H220.954L207.099 112.892L222.666 135.217H209.461L200.657 121.989L191.857 135.217H178.897L194.056 113.139ZM48.1252 93.5844H59.4965V99.3861H59.2966C62.2079 94.7113 67.2259 92.4575 72.0863 92.4575C84.3046 92.4575 87.3838 99.3083 87.3838 109.628V135.261H75.4436V111.725C75.4436 104.869 73.8649 101.483 68.5214 101.483C62.2925 101.483 60.0641 104.945 60.0641 113.416V135.26H48.1252V93.5844Z" fill="white"/>
<path d="M27.998 75.1481V84.513H40.2253V75.1481H27.998Z" fill="white"/>
<path d="M28 144.71H38.3138L45.7472 165.538L53.0877 144.71H62.7976V173.843H56.2469V152.296H56.1075L48.4883 173.843H42.681L34.8294 152.296H34.6436V173.843H28V144.71Z" fill="white"/>
<path d="M75.3726 174.291C73.2665 174.291 71.6869 174.112 70.6338 173.753C69.6117 173.364 68.8839 172.69 68.4503 171.733C68.0476 170.745 67.8463 169.279 67.8463 167.334C67.8463 165.598 68.0631 164.237 68.4967 163.249C68.9613 162.261 69.6892 161.558 70.6803 161.139C71.7024 160.69 73.0962 160.466 74.8616 160.466H82.4808V158.985C82.4808 158.057 82.3415 157.369 82.0627 156.92C81.8149 156.471 81.3348 156.157 80.6225 155.977C79.9411 155.798 78.9035 155.708 77.5098 155.708C75.5895 155.708 72.9568 155.887 69.6118 156.246V152.117C72.0586 151.818 74.9235 151.668 78.2066 151.668C81.0871 151.668 83.3016 151.877 84.8502 152.296C86.4298 152.715 87.5603 153.433 88.2417 154.451C88.9231 155.468 89.2638 156.95 89.2638 158.895V173.843H82.6202V171.867C82.0937 172.735 81.3813 173.349 80.4831 173.708C79.5849 174.097 77.8814 174.291 75.3726 174.291ZM78.0208 170.207C79.3836 170.207 80.3592 170.162 80.9477 170.072C81.3813 170.012 81.6755 169.922 81.8304 169.803C82.0162 169.683 82.1711 169.488 82.295 169.219C82.4189 169.01 82.4808 168.695 82.4808 168.276V164.057H77.8349C76.7819 164.057 76.0385 164.132 75.6049 164.281C75.1713 164.401 74.8771 164.67 74.7222 165.089C74.5673 165.478 74.4899 166.182 74.4899 167.199C74.4899 168.187 74.5673 168.875 74.7222 169.264C74.8771 169.653 75.1713 169.907 75.6049 170.027C76.0695 170.147 76.8748 170.207 78.0208 170.207Z" fill="white"/>
<path d="M95.2316 142.421H102.015V173.843H95.2316V142.421ZM102.293 161.633L109.68 152.117H117.439L109.634 161.588L118.089 173.843H110.424L102.293 161.633Z" fill="white"/>
<path d="M131.611 174.291C123.651 174.291 119.671 171.942 119.671 167.244V159.434C119.671 156.71 120.569 154.735 122.365 153.508C124.193 152.281 126.996 151.668 130.774 151.668C134.336 151.668 136.938 152.266 138.579 153.463C140.252 154.631 141.088 156.621 141.088 159.434V164.73H126.5V166.705C126.5 167.962 126.965 168.86 127.894 169.399C128.823 169.937 130.496 170.207 132.911 170.207C135.141 170.207 137.65 169.892 140.438 169.264V173.439C137.681 174.007 134.739 174.291 131.611 174.291ZM134.63 161.005V157.862C134.63 157.144 134.321 156.606 133.701 156.246C133.113 155.887 132.106 155.708 130.681 155.708C129.04 155.708 127.94 155.887 127.383 156.246C126.794 156.636 126.5 157.174 126.5 157.862V161.005H134.63Z" fill="white"/>
<path d="M146.273 152.117H152.73V155.932C152.73 155.244 153.025 154.571 153.613 153.912C154.202 153.254 154.945 152.715 155.843 152.296C156.772 151.877 157.686 151.668 158.584 151.668H161V157.099H158.677C156.757 157.099 155.332 157.384 154.403 157.952C153.505 158.521 153.056 159.463 153.056 160.78V173.843H146.273V152.117Z" fill="white"/>
</g>
<defs>
<clipPath id="clip0_2210_1950">
<rect width="247" height="246" fill="white"/>
</clipPath>
</defs>
</svg>
